<?xml version="1.0" encoding="UTF-8"?>
<svg version="1.1" xmlns="http://www.w3.org/2000/svg" width="337" height="84">
<path d="M0 0 C0.99 0.804375 1.98 1.60875 3 2.4375 C4.051875 1.509375 4.051875 1.509375 5.125 0.5625 C9.34735376 -2.55837017 12.83426836 -3.84672015 18.0625 -3.375 C21.58033818 -2.80326722 24.13431624 -1.75390523 27 0.4375 C29.39629455 4.03194183 29.25781331 6.58611652 29.1953125 10.73046875 C29.1924826 11.43649734 29.18965271 12.14252594 29.18673706 12.86994934 C29.17555464 15.12180633 29.1504542 17.37326352 29.125 19.625 C29.11496767 21.15298904 29.10584226 22.68098433 29.09765625 24.20898438 C29.07562172 27.95197663 29.04110567 31.69467056 29 35.4375 C26.69 35.4375 24.38 35.4375 22 35.4375 C21.67 25.8675 21.34 16.2975 21 6.4375 C18.23952457 5.51734152 16.36637731 5.24482755 13.5 5.1875 C12.7265625 5.16171875 11.953125 5.1359375 11.15625 5.109375 C8.45368386 5.52063506 7.64423022 6.29198008 6 8.4375 C4.98412022 11.48513934 4.80195594 13.78468967 4.68359375 16.98046875 C4.62075195 18.59018555 4.62075195 18.59018555 4.55664062 20.23242188 C4.51732422 21.35197266 4.47800781 22.47152344 4.4375 23.625 C4.37272461 25.32172852 4.37272461 25.32172852 4.30664062 27.05273438 C4.20050901 29.84753354 4.09845615 32.64242162 4 35.4375 C1.36 35.4375 -1.28 35.4375 -4 35.4375 C-4.01458252 34.63530029 -4.02916504 33.83310059 -4.04418945 33.0065918 C-4.11856719 29.37890301 -4.21526243 25.75214496 -4.3125 22.125 C-4.33505859 20.86236328 -4.35761719 19.59972656 -4.38085938 18.29882812 C-4.4340332 16.48608398 -4.4340332 16.48608398 -4.48828125 14.63671875 C-4.51446533 13.52127686 -4.54064941 12.40583496 -4.56762695 11.2565918 C-4.77410386 8.43391098 -4.77410386 8.43391098 -6.3972168 6.57055664 C-8.53120755 5.06197308 -9.90923238 5.10114108 -12.5 5.1875 C-13.2734375 5.20296875 -14.046875 5.2184375 -14.84375 5.234375 C-17.1822807 5.37278295 -17.1822807 5.37278295 -20 6.4375 C-20.80929482 10.04620608 -21.17814083 13.48211938 -21.31640625 17.17578125 C-21.35830078 18.24248047 -21.40019531 19.30917969 -21.44335938 20.40820312 C-21.50233398 22.06239258 -21.50233398 22.06239258 -21.5625 23.75 C-21.60568359 24.87212891 -21.64886719 25.99425781 -21.69335938 27.15039062 C-21.79914787 29.91264569 -21.90123672 32.6749863 -22 35.4375 C-24.64 35.4375 -27.28 35.4375 -30 35.4375 C-30 22.8975 -30 10.3575 -30 -2.5625 C-27.36 -2.5625 -24.72 -2.5625 -22 -2.5625 C-21.67 -1.5725 -21.34 -0.5825 -21 0.4375 C-20.2575 -0.036875 -19.515 -0.51125 -18.75 -1 C-12.34434387 -4.63957734 -5.99996579 -4.29612155 0 0 Z " fill="#0078EB" transform="translate(303,30.5625)"/>
<path d="M0 0 C4.23949257 3.46867574 6.32246698 6.79081852 8 12 C8 14.64 8 17.28 8 20 C-0.58 20 -9.16 20 -18 20 C-15.62994403 25.22698285 -15.62994403 25.22698285 -11.625 26 C-7.62040491 26 -6.21622392 25.23348884 -3 23 C0.99904969 23 2.80200422 24.72586967 6 27 C4.4898214 30.84409098 2.44335653 32.7543327 -1 35 C-7.56258739 37.29690559 -13.70644563 37.89980282 -20.20703125 35.0234375 C-25.69709041 31.86588956 -28.96832588 28.09502237 -31 22 C-31.74212833 15.15052048 -31.08417387 9.65985823 -27 4 C-19.60394323 -4.16474806 -9.38864361 -5.13718235 0 0 Z M-17 8.375 C-18.17469914 9.96587907 -18.17469914 9.96587907 -18 12 C-13.38 12 -8.76 12 -4 12 C-6.24459183 6.9951376 -6.24459183 6.9951376 -8.9375 6.40625 C-13.22389952 6.53529686 -13.22389952 6.53529686 -17 8.375 Z " fill="#1E1E1E" transform="translate(80,30)"/>
<path d="M0 0 C4.29 0 8.58 0 13 0 C15.64 6.6 18.28 13.2 21 20 C23.78728629 13.37077855 26.53202474 6.75445862 29 0 C33.29 0 37.58 0 42 0 C40.46111688 4.61664937 38.7943534 9.07959402 36.91796875 13.55859375 C36.4738842 14.61966087 36.4738842 14.61966087 36.02082825 15.7021637 C35.39600947 17.19108679 34.76982087 18.67943571 34.14233398 20.16723633 C33.1931562 22.42405151 32.25576411 24.68553996 31.31835938 26.94726562 C30.70645549 28.40134753 30.09384794 29.85513356 29.48046875 31.30859375 C29.06924019 32.30891884 29.06924019 32.30891884 28.64970398 33.32945251 C26.2406857 38.97447874 23.38237472 44.28247404 18.3125 47.9375 C12.45088074 49.81764203 6.59504429 50.18594655 1 47.3125 C-2.06197106 44.95223064 -3.07625522 43.69497913 -4 40 C1.40135409 37.06448147 4.81357805 36.84273685 10.86328125 37.87109375 C11.56839844 37.91363281 12.27351563 37.95617187 13 38 C13.66 37.34 14.32 36.68 15 36 C14.3184082 34.41747437 14.3184082 34.41747437 13.62304688 32.80297852 C11.9439817 28.90320606 10.26728143 25.00242066 8.59130859 21.10131836 C7.86441904 19.41028381 7.13688104 17.71952785 6.40869141 16.02905273 C5.36451951 13.6047271 4.32265357 11.17942211 3.28125 8.75390625 C2.95314331 7.99348526 2.62503662 7.23306427 2.2869873 6.44960022 C0 1.11387171 0 1.11387171 0 0 Z " fill="#1E1E1E" transform="translate(156,28)"/>
<path d="M0 0 C3.74020498 1.68152073 5.56134348 3.69039473 8 7 C8.33773437 6.4946875 8.67546875 5.989375 9.0234375 5.46875 C9.46945313 4.8190625 9.91546875 4.169375 10.375 3.5 C10.81585938 2.8503125 11.25671875 2.200625 11.7109375 1.53125 C12.13632812 1.0259375 12.56171875 0.520625 13 0 C13.66 0 14.32 0 15 0 C14.95570753 5.56901504 14.88572792 11.13691136 14.79248047 16.70532227 C14.76434784 18.59748404 14.74309512 20.48976164 14.72900391 22.38208008 C14.70746714 25.1107887 14.66076331 27.83811591 14.609375 30.56640625 C14.60753204 31.82463951 14.60753204 31.82463951 14.60565186 33.10829163 C14.44687525 39.55240806 12.85358745 43.81069637 8.47265625 48.70703125 C3.46168561 52.63529909 -0.3978121 54.51633652 -6.88671875 54.30859375 C-13.46039308 53.34866718 -17.77983832 49.68897165 -21.87109375 44.68359375 C-24.96419283 40.07070204 -24.57436635 34.32086602 -24 29 C-22.09257733 26.03289806 -20.84934872 25.33526923 -17.625 24.0625 C-14.00955305 23.97641793 -12.01532251 25.05679216 -9 27 C-6.37958735 30.62760708 -6.97588982 33.93961002 -7.375 38.25 C-7.54128906 40.14492187 -7.54128906 40.14492187 -7.7109375 42.078125 C-7.80632813 43.04234375 -7.90171875 44.0065625 -8 45 C-5.65466049 45.76956136 -5.65466049 45.76956136 -3 46 C-0.92776292 44.47417895 -0.10162614 43.56148193 0.36076355 41.00679016 C0.35410172 40.24956161 0.34743988 39.49233307 0.34057617 38.7121582 C0.34034958 37.85149246 0.34012299 36.99082672 0.33988953 36.1040802 C0.32440567 35.17899155 0.30892181 34.25390289 0.29296875 33.30078125 C0.28660149 31.87550362 0.28660149 31.87550362 0.28010559 30.4214325 C0.26330484 27.38483412 0.22564992 24.34889798 0.1875 21.3125 C0.17245497 19.25456687 0.15876625 17.19662335 0.14648438 15.13867188 C0.11339671 10.09219252 0.06160462 5.04620856 0 0 Z " fill="#1E1E1E" transform="translate(29,23)"/>
<path d="M0 0 C0 4 0 4 -1.3125 5.484375 C-2.875 6.65625 -4.4375 7.828125 -6 9 C-6.495 8.67 -6.99 8.34 -7.5 8 C-11.09090894 6.56363642 -14.14456127 6.87148538 -18 7 C-18.33 7.66 -18.66 8.32 -19 9 C-18.27554688 9.18175781 -17.55109375 9.36351562 -16.8046875 9.55078125 C-4.63736264 12.71428571 -4.63736264 12.71428571 -0.125 16.625 C1.65121531 20.37478788 1.79009508 23.94079592 1 28 C-1.7045124 31.4354617 -4.77377312 34.50171095 -9.1640625 35.484375 C-18.04675766 36.4431421 -24.97420962 34.75675294 -33 31 C-31.44499019 27.18315774 -28.96404505 24.80804268 -26 22 C-24.845 22.495 -23.69 22.99 -22.5 23.5 C-18.14717108 25.15562957 -14.62477967 25.24775605 -10 25 C-12.43916572 21.34125142 -13.68355286 21.24874499 -17.8125 20.0625 C-22.28278766 18.66352509 -25.67304737 17.44167514 -29 14 C-30.53214888 10.93570224 -30.22938548 8.3834358 -30 5 C-28.61438886 1.27617007 -26.74038488 -0.39516917 -23.375 -2.3125 C-14.93176566 -6.08730367 -8.03431269 -3.75717337 0 0 Z " fill="#1E1E1E" transform="translate(123,31)"/>
<path d="M0 0 C2.97 0 5.94 0 9 0 C9 3.63 9 7.26 9 11 C11.97 11 14.94 11 18 11 C21 17.625 21 17.625 21 21 C17.04 21 13.08 21 9 21 C9.495 29.415 9.495 29.415 10 38 C13.96 37.34 17.92 36.68 22 36 C23.485 40.455 23.485 40.455 25 45 C19.40979293 48.15084399 14.52205262 50.30250708 8 50 C3.24379042 48.38468354 0.57066834 46.29894008 -2 42 C-2.489915 38.21691305 -2.37663729 34.49392456 -2.25 30.6875 C-2.23195312 29.66076172 -2.21390625 28.63402344 -2.1953125 27.57617188 C-2.14831063 25.04982115 -2.08262272 22.52539531 -2 20 C-4.31 20 -6.62 20 -9 20 C-9 17.03 -9 14.06 -9 11 C-8.071875 10.67 -7.14375 10.34 -6.1875 10 C-1.79272355 7.24249321 -1.44317923 4.89077407 0 0 Z " fill="#1E1E1E" transform="translate(135,17)"/>
<path d="M0 0 C0.928125 0.845625 1.85625 1.69125 2.8125 2.5625 C2.8125 3.5525 2.8125 4.5425 2.8125 5.5625 C0.8325 6.5525 -1.1475 7.5425 -3.1875 8.5625 C-3.80625 7.9025 -4.425 7.2425 -5.0625 6.5625 C-9.3648726 3.80898154 -13.19215386 3.86396379 -18.1875 4.5625 C-20.75730726 5.47273585 -21.88298285 6.11154307 -23.4140625 8.37890625 C-24.83249484 12.38347029 -24.75557631 16.3830814 -24.1875 20.5625 C-22.39103146 23.49673195 -21.2433929 25.03455355 -18.1875 26.5625 C-13.28334021 27.10054631 -8.77113657 27.41188792 -4.5625 24.5625 C-3.77875 23.9025 -2.995 23.2425 -2.1875 22.5625 C-0.5375 23.5525 1.1125 24.5425 2.8125 25.5625 C1.30623726 29.39662335 -0.78018201 31.29095467 -4.1875 33.5625 C-10.26683135 36.01761458 -16.0191585 36.17147982 -22.140625 33.80859375 C-27.55064105 30.99773759 -30.85729934 27.22290131 -33.5625 21.8125 C-34.69999495 15.89752625 -34.24336892 10.63513158 -31.5 5.25 C-27.45211718 0.54570375 -23.74205863 -3.02983889 -17.4609375 -4.28125 C-11.21895728 -4.71025208 -5.22346153 -3.48935689 0 0 Z " fill="#0567DB" transform="translate(235.1875,31.4375)"/>
<path d="M0 0 C0 2.97 0 5.94 0 9 C-1.423125 9.226875 -2.84625 9.45375 -4.3125 9.6875 C-7.5621857 10.20556584 -8.64184316 10.50753435 -10.609375 13.21289062 C-12.11462112 16.22972519 -12.41823093 18.1726673 -12.51171875 21.51953125 C-12.54716797 22.54111328 -12.58261719 23.56269531 -12.61914062 24.61523438 C-12.65297852 26.19788086 -12.65297852 26.19788086 -12.6875 27.8125 C-12.72166016 28.88693359 -12.75582031 29.96136719 -12.79101562 31.06835938 C-12.87326643 33.71213533 -12.94249209 36.35558921 -13 39 C-15.64 39 -18.28 39 -21 39 C-21 26.46 -21 13.92 -21 1 C-18.69 1 -16.38 1 -14 1 C-13.67 2.65 -13.34 4.3 -13 6 C-12.113125 5.195625 -11.22625 4.39125 -10.3125 3.5625 C-7.00562645 0.79504554 -4.31165706 0 0 0 Z " fill="#036FE4" transform="translate(267,27)"/>
<path d="M0 0 C2.30691196 2.66736696 3.04722253 4.03193815 2.875 7.5625 C1.85905882 10.39262185 1.25013624 11.96761888 -1 14 C-3.72950665 14.97693839 -6.11416313 15.32002471 -9 15 C-12 13 -12 13 -14 10 C-14.5625 6.4375 -14.5625 6.4375 -14 3 C-9.82111206 -2.4757842 -6.18631998 -2.43033999 0 0 Z " fill="#010101" transform="translate(19,49)"/>
<path d="M0 0 C0.33 0 0.66 0 1 0 C1.28875 0.94875 1.5775 1.8975 1.875 2.875 C2.76825109 6.05211578 2.76825109 6.05211578 5 8 C6.64991582 8.70710678 8.31562256 9.37943989 10 10 C7 12 7 12 4.9375 12.75 C2.09887472 14.58137115 1.82688878 16.83025969 1 20 C0.34 20 -0.32 20 -1 20 C-1.350625 19.071875 -1.70125 18.14375 -2.0625 17.1875 C-4.59919019 13.0142355 -6.4710174 12.53814504 -11 11 C-10.67 10.34 -10.34 9.68 -10 9 C-9.071875 8.773125 -8.14375 8.54625 -7.1875 8.3125 C-2.73265305 6.47815125 -2.05422818 4.26647391 0 0 Z " fill="#0276EF" transform="translate(37,7)"/>
<path d="M0 0 C0.99 1.0209375 0.99 1.0209375 2 2.0625 C5.10738765 4.06935452 5.66865031 4.28185956 9.125 3.9375 C13.30941871 2.97939716 13.30941871 2.97939716 16 0 C16 1.32 16 2.64 16 4 C8.48520179 7.32286996 8.48520179 7.32286996 4.84375 6.53125 C2.9375 5.6875 2.9375 5.6875 0 4 C0 2.68 0 1.36 0 0 Z " fill="#303030" transform="translate(5,59)"/>
<path d="M0 0 C0 2.97 0 5.94 0 9 C-1.65 9 -3.3 9 -5 9 C-3.68 8.67 -2.36 8.34 -1 8 C-1 6.35 -1 4.7 -1 3 C-5.455 3.495 -5.455 3.495 -10 4 C-6.62026577 0.62026577 -4.66218416 0 0 0 Z " fill="#0267D0" transform="translate(267,27)"/>
<path d="M0 0 C1.98 0.99 3.96 1.98 6 3 C5.67 3.66 5.34 4.32 5 5 C4.278125 4.814375 3.55625 4.62875 2.8125 4.4375 C-0.12826973 3.98004693 -2.14103058 4.26483643 -5 5 C-3.35 3.35 -1.7 1.7 0 0 Z " fill="#0362CD" transform="translate(232,54)"/>
<path d="M0 0 C0.66 0 1.32 0 2 0 C2 0.99 2 1.98 2 3 C0.02 3.99 -1.96 4.98 -4 6 C-4.66 5.01 -5.32 4.02 -6 3 C-4.02 2.34 -2.04 1.68 0 1 C0 0.67 0 0.34 0 0 Z " fill="#0359BB" transform="translate(236,34)"/>
</svg>
